<svg width="32.000000" height="26.000000" viewBox="0 0 32 26" fill="none" xmlns="http://www.w3.org/2000/svg" xmlns:xlink="http://www.w3.org/1999/xlink">
	<desc>
			Created with Pixso.
	</desc>
	<defs>
		<clipPath id="clip20_4">
			<rect id="back-arrow" width="32.000000" height="26.000000" fill="white" fill-opacity="0"/>
		</clipPath>
	</defs>
	<rect id="back-arrow" width="32.000000" height="26.000000" fill="#FFFFFF" fill-opacity="1.000000"/>
	<g clip-path="url(#clip20_4)">
		<path id="Vector" d="M21 4.15C21 4.45 20.86 4.75 20.62 4.96L14.14 10.85C13.95 11.03 13.79 11.24 13.69 11.47C13.58 11.71 13.53 11.96 13.53 12.21C13.53 12.46 13.58 12.71 13.69 12.94C13.79 13.18 13.95 13.39 14.14 13.57L20.62 19.45C20.85 19.67 20.97 19.96 20.97 20.26C20.97 20.56 20.83 20.85 20.6 21.06C20.37 21.28 20.05 21.4 19.71 21.4C19.38 21.4 19.06 21.29 18.82 21.08L12.35 15.2C11.48 14.41 11 13.33 11 12.21C11 11.09 11.48 10.02 12.35 9.23L18.83 3.33C19.01 3.17 19.24 3.06 19.48 3.02C19.73 2.97 19.98 3 20.21 3.08C20.44 3.17 20.64 3.32 20.78 3.51C20.92 3.7 21 3.92 21 4.15Z" fill="#000000" fill-opacity="1.000000" fill-rule="nonzero"/>
	</g>
</svg>
